<svg width="36" height="37" viewBox="0 0 36 37" fill="none" xmlns="http://www.w3.org/2000/svg">
<g clip-path="url(#clip0_2005_418)">
<path d="M18 36.5449C27.9411 36.5449 36 28.486 36 18.5449C36 8.6038 27.9411 0.544922 18 0.544922C8.05888 0.544922 0 8.6038 0 18.5449C0 28.486 8.05888 36.5449 18 36.5449Z" fill="#FF0000"/>
<path d="M20.4926 18.5534L15.5 21.4499V15.6426L20.4926 18.5534Z" fill="url(#paint0_linear_2005_418)"/>
<path d="M35.6548 22.0555C34.9603 25.5406 33.2508 28.7424 30.7412 31.2583C28.2316 33.7742 25.0341 35.4918 21.5508 36.195L9.92188 24.5661C10.5491 25.055 11.3222 25.3194 12.1174 25.3169H23.8979C24.8471 25.3143 25.7565 24.9354 26.4265 24.2631C27.0965 23.5909 27.4725 22.6802 27.4719 21.7311V15.36C27.4747 14.4273 27.1126 13.5305 26.4629 12.8613L35.6548 22.0555Z" fill="url(#paint1_linear_2005_418)"/>
<path d="M23.8874 11.7734H12.1069C11.6361 11.7734 11.1699 11.8662 10.735 12.0464C10.3001 12.2267 9.90494 12.4908 9.57216 12.8238C9.23938 13.1568 8.97547 13.5521 8.79553 13.9872C8.61559 14.4222 8.52313 14.8884 8.52344 15.3592V21.7303C8.52313 22.2011 8.61559 22.6673 8.79553 23.1023C8.97547 23.5374 9.23938 23.9327 9.57216 24.2657C9.90494 24.5987 10.3001 24.8628 10.735 25.0431C11.1699 25.2233 11.6361 25.3161 12.1069 25.3161H23.8874C24.3582 25.3161 24.8243 25.2233 25.2592 25.0431C25.6942 24.8628 26.0893 24.5987 26.4221 24.2657C26.7549 23.9327 27.0188 23.5374 27.1987 23.1023C27.3787 22.6673 27.4711 22.2011 27.4708 21.7303V15.3592C27.4711 14.8884 27.3787 14.4222 27.1987 13.9872C27.0188 13.5521 26.7549 13.1568 26.4221 12.8238C26.0893 12.4908 25.6942 12.2267 25.2592 12.0464C24.8243 11.8662 24.3582 11.7734 23.8874 11.7734ZM15.5008 21.4484V15.6411L20.4934 18.5448L15.5008 21.4484Z" fill="white"/>
</g>
<defs>
<linearGradient id="paint0_linear_2005_418" x1="14.5692" y1="16.5734" x2="18.5197" y2="20.5263" gradientUnits="userSpaceOnUse">
<stop stop-color="#B71C1C"/>
<stop offset="1" stop-color="#B71C1C" stop-opacity="0"/>
</linearGradient>
<linearGradient id="paint1_linear_2005_418" x1="16.975" y1="17.5034" x2="30.7356" y2="31.2616" gradientUnits="userSpaceOnUse">
<stop stop-color="#B71C1C"/>
<stop offset="1" stop-color="#B71C1C" stop-opacity="0"/>
</linearGradient>
<clipPath id="clip0_2005_418">
<rect width="36" height="36" fill="white" transform="translate(0 0.544922)"/>
</clipPath>
</defs>
</svg>
