<svg width="36" height="37" viewBox="0 0 36 37" fill="none" xmlns="http://www.w3.org/2000/svg">
<g clip-path="url(#clip0_2005_410)">
<path d="M18 0.544922C8.05879 0.544922 0 8.60371 0 18.5449C0 28.4861 8.05879 36.5448 18 36.5448C27.9411 36.5448 36 28.4861 36 18.5449C35.9999 8.60371 27.941 0.544922 18 0.544922ZM13.1975 27.247H9.24546V14.479H13.1975V27.247ZM11.2027 12.8069C9.91196 12.8069 8.86562 11.7521 8.86562 10.451C8.86562 9.14984 9.91211 8.09504 11.2027 8.09504C12.4932 8.09504 13.5396 9.14984 13.5396 10.451C13.5396 11.7521 12.4933 12.8069 11.2027 12.8069ZM28.0079 27.247H24.075V20.5449C24.075 18.7067 23.3768 17.6806 21.9233 17.6806C20.3414 17.6806 19.5149 18.7493 19.5149 20.5449V27.247H15.7244V14.479H19.5149V16.1987C19.5149 16.1987 20.6551 14.0896 23.3625 14.0896C26.0699 14.0896 28.008 15.7427 28.008 19.1625L28.0079 27.247Z" fill="url(#paint0_linear_2005_410)"/>
</g>
<defs>
<linearGradient id="paint0_linear_2005_410" x1="5.27206" y1="5.81698" x2="30.7279" y2="31.2728" gradientUnits="userSpaceOnUse">
<stop stop-color="#2489BE"/>
<stop offset="1" stop-color="#0575B3"/>
</linearGradient>
<clipPath id="clip0_2005_410">
<rect width="36" height="36" fill="white" transform="translate(0 0.544922)"/>
</clipPath>
</defs>
</svg>
