<svg width="36" height="37" viewBox="0 0 36 37" fill="none" xmlns="http://www.w3.org/2000/svg">
<path fill-rule="evenodd" clip-rule="evenodd" d="M18 0.544922C27.9411 0.544922 36 8.60381 36 18.5449C36 28.486 27.9411 36.5449 18 36.5449C8.05889 36.5449 0 28.486 0 18.5449C0 8.60381 8.05889 0.544922 18 0.544922Z" fill="url(#paint0_linear_2005_415)"/>
<path d="M20.3389 36.3923V22.4888H24.2586L24.7781 17.5954H20.3389L20.3455 15.1461C20.3455 13.8698 20.4667 13.1862 22.3 13.1862H24.7507V8.29199H20.8301C16.1208 8.29199 14.4636 10.6657 14.4636 14.6581V17.5958H11.528V22.4896H14.4636V36.1952C15.6072 36.423 16.7895 36.5434 18.0001 36.5434C18.7822 36.5434 19.5634 36.493 20.3389 36.3923Z" fill="white"/>
<defs>
<linearGradient id="paint0_linear_2005_415" x1="18" y1="0.216944" x2="18" y2="38.08" gradientUnits="userSpaceOnUse">
<stop stop-color="#00B2FF"/>
<stop offset="1" stop-color="#006AFF"/>
</linearGradient>
</defs>
</svg>
